<svg width="71" height="72" viewBox="0 0 71 72" fill="none" xmlns="http://www.w3.org/2000/svg">
<path fill-rule="evenodd" clip-rule="evenodd" d="M38.9508 62.5575H41.3115C41.9634 62.5575 42.4918 63.086 42.4918 63.7379V66.0985C42.4918 69.3579 39.8495 72.0002 36.5902 72.0002H5.90164C2.64225 72.0002 0 69.3579 0 66.0985V63.7379C0 63.086 0.528451 62.5575 1.18033 62.5575H3.54098V37.7707C3.54098 37.1188 4.06943 36.5903 4.72131 36.5903H15.722C16.3738 36.5903 16.9023 37.1188 16.9023 37.7707C16.9023 38.4225 16.3738 38.951 15.722 38.951H5.90164V62.5575H36.5902V50.9903C36.5902 50.3385 37.1186 49.81 37.7705 49.81C38.4224 49.81 38.9508 50.3385 38.9508 50.9903V62.5575ZM36.5902 69.6395C38.5458 69.6395 40.1311 68.0542 40.1311 66.0985V64.9182H2.36066V66.0985C2.36066 68.0542 3.94601 69.6395 5.90164 69.6395H8.26229V68.4592C8.26229 67.8073 8.79075 67.2789 9.44262 67.2789C10.0945 67.2789 10.623 67.8073 10.623 68.4592V69.6395H31.8689V68.4592C31.8689 67.8073 32.3973 67.2789 33.0492 67.2789C33.7011 67.2789 34.2295 67.8073 34.2295 68.4592V69.6395H36.5902Z" fill="black"/>
<path d="M61.377 8.26251H63.7377C64.3896 8.26251 64.918 7.73406 64.918 7.08218C64.918 6.43031 64.3896 5.90186 63.7377 5.90186H61.377C59.4214 5.90186 57.8361 7.48721 57.8361 9.44284V10.6232H56.6557C56.0039 10.6232 55.4754 11.1516 55.4754 11.8035C55.4754 12.4554 56.0039 12.9838 56.6557 12.9838H57.8361V16.5248C57.8361 17.1767 58.3645 17.7051 59.0164 17.7051C59.6683 17.7051 60.1967 17.1767 60.1967 16.5248V12.9838H61.377C62.0289 12.9838 62.5574 12.4554 62.5574 11.8035C62.5574 11.1516 62.0289 10.6232 61.377 10.6232H60.1967V9.44284C60.1967 8.79096 60.7252 8.26251 61.377 8.26251Z" fill="black"/>
<path d="M67.2787 1.18066H53.1148C51.1591 1.18066 49.5738 2.76602 49.5738 4.72165V7.0823C49.5738 7.73418 50.1022 8.26263 50.7541 8.26263C51.406 8.26263 51.9344 7.73418 51.9344 7.0823V4.72165C51.9344 4.06977 52.4629 3.54132 53.1148 3.54132H67.2787C67.9306 3.54132 68.459 4.06977 68.459 4.72165V18.8856C68.459 19.5375 67.9306 20.0659 67.2787 20.0659H53.1148C52.4629 20.0659 51.9344 19.5375 51.9344 18.8856V11.8036C51.9344 11.1517 51.406 10.6233 50.7541 10.6233C50.1022 10.6233 49.5738 11.1517 49.5738 11.8036V18.8856C49.5738 20.8412 51.1591 22.4266 53.1148 22.4266H67.2787C69.2343 22.4266 70.8197 20.8412 70.8197 18.8856V4.72165C70.8197 2.76602 69.2343 1.18066 67.2787 1.18066V1.18066Z" fill="black"/>
<path fill-rule="evenodd" clip-rule="evenodd" d="M60.1967 53.115C57.5892 53.115 55.4754 51.0012 55.4754 48.3937C55.4754 45.7862 57.5892 43.6724 60.1967 43.6724C62.8042 43.6724 64.918 45.7862 64.918 48.3937C64.918 51.0012 62.8042 53.115 60.1967 53.115ZM60.1967 50.7543C61.5005 50.7543 62.5574 49.6974 62.5574 48.3937C62.5574 47.0899 61.5005 46.033 60.1967 46.033C58.893 46.033 57.8361 47.0899 57.8361 48.3937C57.8361 49.6974 58.893 50.7543 60.1967 50.7543Z" fill="black"/>
<path d="M67.2787 37.7708H53.1148C51.1591 37.7708 49.5738 39.3561 49.5738 41.3117V55.4757C49.5738 57.4313 51.1591 59.0167 53.1148 59.0167H67.2787C69.2343 59.0167 70.8197 57.4313 70.8197 55.4757V53.115C70.8197 52.4631 70.2912 51.9347 69.6393 51.9347C68.9875 51.9347 68.459 52.4631 68.459 53.115V55.4757C68.459 56.1275 67.9306 56.656 67.2787 56.656H53.1148C52.4629 56.656 51.9344 56.1275 51.9344 55.4757V41.3117C51.9344 40.6599 52.4629 40.1314 53.1148 40.1314H67.2787C67.9306 40.1314 68.459 40.6599 68.459 41.3117V48.3937C68.459 49.0456 68.9875 49.574 69.6393 49.574C70.2912 49.574 70.8197 49.0456 70.8197 48.3937V41.3117C70.8197 39.3561 69.2343 37.7708 67.2787 37.7708V37.7708Z" fill="black"/>
<path fill-rule="evenodd" clip-rule="evenodd" d="M27.1475 15.3446C26.9266 15.3453 26.7098 15.2839 26.522 15.1675C26.1761 14.9514 25.9664 14.572 25.9672 14.1642V7.08227C25.9684 6.67318 26.1814 6.2939 26.5301 6.0799C26.8787 5.86589 27.3134 5.84769 27.6787 6.03178L34.7607 9.57277C35.1548 9.77472 35.4028 10.1803 35.4028 10.6233C35.4028 11.0662 35.1548 11.4718 34.7607 11.6737L27.6787 15.2147C27.5142 15.299 27.3323 15.3435 27.1475 15.3446ZM31.5856 10.6233L28.3279 8.99441V12.2521L31.5856 10.6233Z" fill="black"/>
<path fill-rule="evenodd" clip-rule="evenodd" d="M40.1311 10.6232C40.1311 16.4901 35.3751 21.2461 29.5082 21.2461C23.6413 21.2461 18.8852 16.4901 18.8852 10.6232C18.8852 4.7563 23.6413 0.000244141 29.5082 0.000244141C35.3751 0.000244141 40.1311 4.7563 40.1311 10.6232ZM37.7705 10.6232C37.7705 6.06006 34.0713 2.3609 29.5082 2.3609C24.9451 2.3609 21.2459 6.06006 21.2459 10.6232C21.2459 15.1863 24.9451 18.8855 29.5082 18.8855C34.0713 18.8855 37.7705 15.1863 37.7705 10.6232Z" fill="black"/>
<path d="M41.3115 25.9675C41.683 25.9675 42.0328 25.7926 42.2557 25.4954L45.7967 20.7741C46.1878 20.2526 46.0822 19.5128 45.5607 19.1216C45.0392 18.7305 44.2993 18.8362 43.9082 19.3577L40.3672 24.079C39.9761 24.6005 40.0818 25.3403 40.6033 25.7315C40.8076 25.8847 41.0561 25.9675 41.3115 25.9675Z" fill="black"/>
<path d="M43.9082 30.2167C44.1311 30.5139 44.4809 30.6888 44.8525 30.6888C45.1078 30.6888 45.3563 30.606 45.5607 30.4528L50.282 26.9118C50.8035 26.5206 50.9092 25.7808 50.518 25.2593C50.1269 24.7378 49.3871 24.6321 48.8656 25.0232L44.1443 28.5642C43.6228 28.9554 43.5171 29.6952 43.9082 30.2167V30.2167Z" fill="black"/>
<path d="M55.4754 32.8134C55.4187 32.4972 55.2356 32.2177 54.9683 32.0395C54.7011 31.8614 54.3727 31.7998 54.059 31.8691L48.1574 33.0494C47.5055 33.1146 47.0299 33.6959 47.0951 34.3478C47.1603 34.9997 47.7416 35.4753 48.3934 35.4101H48.6295L54.5311 34.2298C54.8473 34.1731 55.1268 33.99 55.305 33.7227C55.4831 33.4554 55.5447 33.127 55.4754 32.8134V32.8134Z" fill="black"/>
<path fill-rule="evenodd" clip-rule="evenodd" d="M15.3443 33.0494H1.18033C0.528451 33.0494 0 32.5209 0 31.869V12.9838C0 12.3319 0.528451 11.8035 1.18033 11.8035H15.3443C15.9961 11.8035 16.5246 12.3319 16.5246 12.9838V31.869C16.5246 32.5209 15.9961 33.0494 15.3443 33.0494ZM14.1639 14.1641H2.36066V30.6887H14.1639V14.1641Z" fill="black"/>
<path d="M10.623 16.5249H8.2623C7.61042 16.5249 7.08197 17.0534 7.08197 17.7052C7.08197 18.3571 7.61042 18.8856 8.2623 18.8856H10.623C11.2748 18.8856 11.8033 18.3571 11.8033 17.7052C11.8033 17.0534 11.2748 16.5249 10.623 16.5249Z" fill="black"/>
<path d="M10.623 21.2461H5.90164C5.24976 21.2461 4.72131 21.7745 4.72131 22.4264C4.72131 23.0783 5.24976 23.6067 5.90164 23.6067H10.623C11.2748 23.6067 11.8033 23.0783 11.8033 22.4264C11.8033 21.7745 11.2748 21.2461 10.623 21.2461Z" fill="black"/>
<path d="M10.623 25.9675H5.90164C5.24976 25.9675 4.72131 26.496 4.72131 27.1479C4.72131 27.7997 5.24976 28.3282 5.90164 28.3282H10.623C11.2748 28.3282 11.8033 27.7997 11.8033 27.1479C11.8033 26.496 11.2748 25.9675 10.623 25.9675Z" fill="black"/>
<path fill-rule="evenodd" clip-rule="evenodd" d="M40.2728 32.6954C40.0619 32.3285 39.6714 32.102 39.2482 32.1012C38.8251 32.1003 38.4337 32.3253 38.2214 32.6913C38.0091 33.0574 38.0082 33.5089 38.219 33.8757L43.4243 42.8816L24.539 49.9636H24.4564H24.362L21.2931 51.7341L19.2511 52.9144C18.7082 53.2283 18.0627 53.3132 17.457 53.1505C16.8546 52.9877 16.3411 52.5931 16.0289 52.0528L13.6682 47.9688C13.0916 46.8596 13.4798 45.4932 14.5534 44.8528L18.6374 42.4921L21.5882 47.6029C21.7999 47.9696 22.1917 48.1948 22.6151 48.1931C23.0376 48.1948 23.4288 47.9705 23.6408 47.605C23.8528 47.2395 23.8532 46.7885 23.642 46.4226L20.5967 41.1583L35.4098 28.942L35.8938 29.78C36.2197 30.3471 36.9437 30.5426 37.5108 30.2167C38.0779 29.8908 38.2735 29.1668 37.9475 28.5997L36.7672 26.5577C36.5921 26.2584 36.2943 26.0512 35.9528 25.9911C35.6094 25.9264 35.2549 26.0172 34.9849 26.239L18.4603 39.86L13.4321 42.7636C11.5764 43.8445 10.6839 46.0417 11.2603 48.1105L10.08 48.7833C8.83624 49.4975 8.14616 50.8915 8.33233 52.3136C8.5185 53.7357 9.54414 54.9051 10.9298 55.2751C11.2302 55.3546 11.5398 55.3943 11.8505 55.3931C12.4714 55.3905 13.0812 55.2279 13.621 54.921L14.8013 54.2482C15.3683 54.8339 16.0814 55.2577 16.8669 55.4757C17.2702 55.5886 17.6874 55.6442 18.1062 55.641C18.9359 55.6429 19.7509 55.4228 20.4669 55.0036L21.4938 54.4134L23.8544 58.5092C24.8312 60.1979 26.9899 60.7785 28.682 59.8075C29.4963 59.3383 30.0907 58.5647 30.3342 57.657C30.5777 56.7493 30.4504 55.782 29.9803 54.9682L27.8321 51.2265L45.537 44.5813C45.862 44.4591 46.1168 44.2001 46.2334 43.8731C46.3497 43.5501 46.3195 43.1924 46.1508 42.8934L40.2728 32.6954ZM12.3934 52.8672C12.122 53.0241 11.7992 53.0666 11.4964 52.9852C11.194 52.9067 10.9351 52.7114 10.7764 52.4423C10.6195 52.1708 10.577 51.8481 10.6584 51.5452C10.7397 51.2408 10.9395 50.9816 11.2131 50.8252L12.24 50.2351L13.4203 52.277L12.3934 52.8672ZM28.0446 57.0692C28.126 56.7663 28.0835 56.4436 27.9266 56.1721L25.5777 52.1354H25.4833L23.5239 53.2567L25.8846 57.3524C26.2127 57.9102 26.9287 58.0997 27.4898 57.7774C27.761 57.6238 27.9604 57.3692 28.0446 57.0692Z" fill="black"/>
</svg>
