<svg width="72" height="72" viewBox="0 0 72 72" fill="none" xmlns="http://www.w3.org/2000/svg">
<path fill-rule="evenodd" clip-rule="evenodd" d="M30.0123 31.491C30.6661 31.491 31.1951 32.0205 31.1951 32.6737V63.8688C31.1951 64.522 30.6661 65.0515 30.0123 65.0515H4.87886C4.22569 65.0515 3.69611 64.522 3.69611 63.8688V32.6737C3.69611 32.0205 4.22569 31.491 4.87886 31.491H30.0123ZM6.06161 62.686H28.8296V33.8565H6.06161V62.686Z" fill="black"/>
<path d="M18.6358 66.0864H16.2651C15.6114 66.0864 15.0824 66.616 15.0824 67.2692C15.0824 67.9223 15.6114 68.4519 16.2651 68.4519H18.6358C19.289 68.4519 19.8186 67.9223 19.8186 67.2692C19.8186 66.616 19.289 66.0864 18.6358 66.0864Z" fill="black"/>
<path fill-rule="evenodd" clip-rule="evenodd" d="M68.3293 0.000222958H52.2987C50.3207 0.000222958 48.6407 1.54565 48.6407 3.52364V9.75792H12.2925C8.60213 9.7689 5.61695 12.7645 5.61811 16.4542V27.7949H4.8939C2.16803 27.7949 3.85859e-05 30.0622 3.85859e-05 32.791V66.9591C-0.00746911 68.2597 0.505942 69.5094 1.4265 70.4288C2.34648 71.3482 3.59623 71.861 4.89679 71.8524H30.9826C32.0498 71.8616 33.0738 71.4343 33.8182 70.6696C34.5609 69.9038 35.0391 68.9319 34.8912 67.8716V62.0947H62.467C66.1666 62.0883 69.1691 59.0985 69.191 55.3984V51.1692C69.1737 50.5051 68.632 49.9749 67.9678 49.9715H66.2341V38.4396H68.3293C70.3073 38.4396 71.8522 36.7608 71.8522 34.7828V3.52364C71.8632 2.58576 71.4959 1.68368 70.8323 1.02012C70.1693 0.357127 69.2667 -0.0107498 68.3293 0.000222958ZM51.0062 7.68811H69.4867V28.8298H51.0062V7.68811ZM68.3294 2.36573H52.2987C51.6253 2.36573 51.0062 2.85026 51.0062 3.52364V5.32261H69.4867V3.52364C69.4988 3.21352 69.3804 2.91206 69.161 2.69202C68.9409 2.47257 68.6395 2.35418 68.3294 2.36573ZM7.98361 16.4542C7.98072 14.0702 9.90789 12.1332 12.2925 12.1234H48.6407V15.5238H12.2197C11.5665 15.5238 11.0883 16.1181 11.0883 16.7713V27.7949H7.98361V16.4542ZM30.9826 69.4869C31.4209 69.5007 31.8454 69.3333 32.1561 69.0237C32.4414 68.7251 32.5887 68.3214 32.5627 67.9097C32.5627 67.9036 32.5537 67.9016 32.5448 67.8996C32.5358 67.8976 32.5269 67.8955 32.5269 67.8895V32.791C32.5269 31.3657 31.4273 30.1604 29.9985 30.1604H4.89679C3.47148 30.1604 2.36554 31.3657 2.36554 32.7944V66.9556C2.35688 67.6307 2.62138 68.2799 3.09841 68.7569C3.57601 69.2333 4.22572 69.4967 4.90083 69.4869H30.9826ZM30.002 27.7949H13.4538V17.8893H48.6407V34.7828C48.6707 36.7908 50.2912 38.4108 52.2987 38.4396H58.3984V49.9715H43.9963C43.6654 49.9744 43.3501 50.1153 43.1266 50.3601L42.0102 51.5539C41.1902 52.4352 40.0392 52.9336 38.8351 52.9284H34.8912V32.7875C34.8912 30.0622 32.7307 27.7949 30.002 27.7949ZM62.467 59.7292C64.8608 59.724 66.8047 57.7928 66.8255 55.3984V52.337H44.5149L43.7497 53.1536C42.4815 54.5211 40.6999 55.2967 38.8351 55.2939H34.8912V59.7292H62.467ZM63.8686 49.9715H60.7639V38.4396H63.8686V49.9715ZM52.2987 36.0741H68.3294C69.0027 36.0741 69.4867 35.4568 69.4867 34.7828V31.1953H51.0062V34.7828C51.0345 35.4845 51.5976 36.047 52.2987 36.0741Z" fill="black"/>
<path d="M61.9467 32.2302H58.8419C58.1888 32.2302 57.6592 32.7598 57.6592 33.413C57.6592 34.0661 58.1888 34.5957 58.8419 34.5957H61.9467C62.6004 34.5957 63.1294 34.0661 63.1294 33.413C63.1294 32.7598 62.6004 32.2302 61.9467 32.2302Z" fill="black"/>
</svg>
