<svg width="72" height="36" viewBox="0 0 72 36" fill="none" xmlns="http://www.w3.org/2000/svg">
<path d="M71.0868 19.1056C70.5087 19.0265 69.9765 19.4313 69.8976 20.0091C69.388 23.7413 67.5411 27.1745 64.6968 29.6761C61.8269 32.2001 58.1393 33.5902 54.3127 33.5902C52.2308 33.5902 50.2086 33.1903 48.3023 32.4014C48.2706 32.3883 48.2341 32.3755 48.2012 32.3655C48.1788 32.3588 45.9292 31.6561 42.5797 28.9971C42.1228 28.6345 41.4586 28.711 41.096 29.1677C40.7334 29.6246 40.8098 30.2888 41.2665 30.6514C44.7029 33.379 47.1171 34.2348 47.538 34.3708C49.6889 35.2542 51.9678 35.7023 54.3127 35.7023C58.6529 35.7023 62.836 34.1253 66.0916 31.262C69.3171 28.4252 71.4119 24.5303 71.9903 20.295C72.069 19.7169 71.6646 19.1845 71.0868 19.1056Z" fill="black"/>
<path fill-rule="evenodd" clip-rule="evenodd" d="M54.3835 29.2096C50.6997 29.2097 47.9122 27.1673 45.6709 25.1693C43.2558 23.0162 41.2518 20.9121 40.1889 19.7541C39.8391 20.1694 38.8537 21.3665 38.0494 22.3435C37.6071 22.8809 37.2196 23.3516 37.0228 23.5891C37.6765 24.3466 38.3421 25.0728 39.007 25.7534C39.4145 26.1707 39.4066 26.8392 38.9894 27.2467C38.5722 27.6541 37.9036 27.6463 37.4961 27.2292C36.8835 26.6021 36.2713 25.9382 35.6677 25.2486C29.3517 32.936 25.4364 34.1984 24.5635 34.3926C22.6583 35.168 20.6446 35.6035 18.5767 35.6873C18.5696 35.6878 18.5625 35.6879 18.5555 35.688H18.5552L17.8637 35.702L17.8423 35.7021C13.0518 35.7021 8.55477 33.8297 5.17963 30.4298C1.80477 27.0302 -0.0344637 22.5189 0.000411317 17.7267C0.0351457 12.9722 1.93429 8.50593 5.34782 5.15061C8.76346 1.79347 13.2615 -0.0316993 18.0235 0.0180819C20.242 0.0401601 22.4038 0.464988 24.4491 1.28075C24.5459 1.31943 24.6434 1.35768 24.7416 1.39438C25.7143 1.75804 30.6581 3.86277 36.2247 10.7923C42.6957 2.81807 46.7079 1.52361 47.5914 1.32674C49.4968 0.551332 51.5104 0.115816 53.5784 0.0320038C53.5856 0.0315819 53.5927 0.0314413 53.5999 0.0313007L54.2914 0.0173788L54.3127 0.0172382C58.5915 0.0172382 62.7296 1.55497 65.9648 4.34708C69.166 7.1098 71.2876 10.9199 71.9391 15.0758C72.0294 15.6519 71.6355 16.1922 71.0593 16.2826C70.4831 16.3725 69.9428 15.979 69.8525 15.4029C69.2785 11.7406 67.4077 8.38204 64.5848 5.94585C61.7356 3.48688 58.0916 2.13168 54.323 2.12914L53.6535 2.14264C51.803 2.21886 50.0026 2.6143 48.3021 3.31799C48.2162 3.35357 48.1617 3.37269 48.0719 3.38422C47.8595 3.43302 44.0058 4.42077 37.5085 12.5656C37.5062 12.5684 37.5039 12.5713 37.5016 12.5742C37.4995 12.5767 37.4974 12.5793 37.4953 12.5818C37.4953 12.5818 30.1532 21.3268 27.1093 24.521C25.029 26.7039 22.0877 29.2096 17.7723 29.2096C11.5139 29.2094 6.42247 24.1178 6.42247 17.8596C6.42247 14.0556 8.31444 10.5229 11.4834 8.40946C11.9689 8.08602 12.6245 8.21708 12.9479 8.70224C13.2715 9.18754 13.1404 9.84313 12.6551 10.1667C10.0749 11.8871 8.53452 14.7628 8.53452 17.8592C8.53452 22.9529 12.6787 27.0971 17.7725 27.0971C20.5139 27.0971 22.922 25.853 25.5805 23.0634C27.3793 21.1761 29.0353 19.3612 30.582 17.5819C29.6035 16.5096 27.5408 14.3208 25.0791 12.126C21.6162 9.03903 19.4424 8.62138 17.7729 8.62138H17.7689C17.4614 8.62138 17.1513 8.63685 16.8469 8.66708C16.2676 8.72418 15.7493 8.30103 15.6916 7.72068C15.634 7.14032 16.0577 6.62324 16.638 6.56544C17.0114 6.52832 17.3918 6.50947 17.7684 6.50947H17.7722C21.4558 6.50947 24.2432 8.55177 26.4845 10.5498C28.8997 12.7029 30.903 14.8062 31.9663 15.9645C32.5083 15.321 34.8518 12.4589 34.8518 12.4589C29.3974 5.53508 24.5517 3.57786 24.002 3.37227C23.8898 3.33022 23.7786 3.28663 23.6673 3.24233C21.8649 2.52346 19.9593 2.14925 18.0027 2.12971C17.9498 2.12929 17.8963 2.129 17.8435 2.129C13.7088 2.129 9.80296 3.73311 6.82846 6.65671C3.81796 9.6156 2.14311 13.5524 2.1126 17.7418C2.08166 21.967 3.70335 25.9444 6.67869 28.9416C9.65179 31.9364 13.6125 33.587 17.8318 33.5898L18.5016 33.5763C20.3519 33.5002 22.1525 33.1048 23.8529 32.4011C23.9387 32.3655 23.9934 32.3465 24.0831 32.3348C24.2983 32.2855 28.2292 31.2768 34.8477 22.9002C35.0986 22.5828 42.0019 14.3923 45.0458 11.1982C47.1261 9.01541 50.0677 6.50975 54.3826 6.50975H54.3828C60.6411 6.50975 65.7326 11.6012 65.7326 17.8596C65.7326 24.1157 60.6431 29.2072 54.3871 29.2096H54.3835ZM54.3828 8.6218C51.6413 8.62166 49.2332 9.86563 46.5747 12.6553C44.7763 14.5424 43.1197 16.3574 41.5731 18.1363C42.5511 19.2085 44.614 21.3977 47.0762 23.5929C50.5391 26.68 52.7131 27.0977 54.3826 27.0977H54.3863C59.4782 27.0957 63.6207 22.9516 63.6207 17.8597C63.6207 12.7659 59.4765 8.6218 54.3828 8.6218Z" fill="black"/>
</svg>
